# xmcd
#
# Track frame offsets: 
#        150
#        13096
#        25366
#        38586
#        52438
#        64795
#        76881
#        89613
#        101825
#        112885
#        124846
#        137122
#        149582
#        161834
#        173665
#        185279
#        197050
#        207981
#        218658
#        230279
#        240097
#        252815
#        264805
#        275188
#        287831
#        298853
#
# Disc length: 4132 seconds
#
# Revision: 4
# Processed by: cddbd v1.5.2PL0 Copyright (c) Steve Scherf et al.
# Submitted via: ExactAudioCopy v1.0b3
#
DISCID=8610221a
DTITLE=Various Artist - Hillbilly Bop 'n' Boogie (King-Federal 1944-56)
DYEAR=2002
DGENRE=Rockabilly
TTITLE0=Grandpa Jones - It's Raining Here This Morning (Remake)
TTITLE1=Delmore Brothers, The - Beale Street Boogie
TTITLE2=Carlisle, Bill - Rockin' Chair Money
TTITLE3=Holden, Fairley - Papa's Getting Old
TTITLE4=Widener, Jimmie - What A Line!
TTITLE5=Luke Wills' Rhythm Busters - Four Or Five Times
TTITLE6=Cox, Mel and The Flying X Ranch Boys - She's A Backwoods Woman
TTITLE7=Cowboy Copas - Three Strikes And You're Out
TTITLE8=Stewart, Redd - Brother Drop Dead (Boogie)
TTITLE9=Scott, Tommy - Rockin' And Rollin'
TTITLE10=Grandpa Jones - You'll Make Our Shack A Mansion
TTITLE11=Moody, Clyde - Tend To Your Business
TTITLE12=Brewster Avenue Rhythm Boys with Zeke Turner - Stop And Go Bo
TTITLE12=ogie (Rag Man Boogie Inst)
TTITLE13=Long, Shorty - Goodnight Cincinnatti, Good Morning Tennessee
TTITLE14=Mullican, Moon - Grandpa Stole My Baby
TTITLE15=Jones, Ann - Hi-Ballin' Daddy
TTITLE16=McDaniel, Luke - Money Bag Woman
TTITLE17=Cardwell, Jack - Day Done Broke Too Soon This Morning
TTITLE18=Herb and Kay - We Did
TTITLE19=Innes, Louie - I Ain't Got A Pot (To Peel Potatoes In)
TTITLE20=Long, Bill - Whata Waste (Of Good Corn Likker)
TTITLE21=Gore, Charlie - Stumbling Block
TTITLE22=Gunter, Hardrock - I Put My Britches On Just Like Everybody E
TTITLE22=lse
TTITLE23=Innis, Louie - Sing Your Song Baby
TTITLE24=Cardwell, Jack - Ko Ko Mo (I Love You So)
TTITLE25=Grandpa Jones - It's Raining Here This Morning (Original)
EXTD=
EXTT0=
EXTT1=
EXTT2=
EXTT3=
EXTT4=
EXTT5=
EXTT6=
EXTT7=
EXTT8=
EXTT9=
EXTT10=
EXTT11=
EXTT12=
EXTT13=
EXTT14=
EXTT15=
EXTT16=
EXTT17=
EXTT18=
EXTT19=
EXTT20=
EXTT21=
EXTT22=
EXTT23=
EXTT24=
EXTT25=
PLAYORDER=
